<svg width="32" height="32" viewBox="0 0 32 32" fill="none" xmlns="http://www.w3.org/2000/svg">
<path d="M12 25.83V27.856C6.938 27.098 4 23.504 4 20V19C4 18.2044 4.31607 17.4413 4.87868 16.8787C5.44129 16.3161 6.20435 16 7 16H13.528C13.006 16.5829 12.603 17.2623 12.342 18H7C6.73478 18 6.48043 18.1054 6.29289 18.2929C6.10536 18.4804 6 18.7348 6 19V20C6 22.478 8.126 25.14 12 25.83ZM14 3C15.4587 3 16.8576 3.57946 17.8891 4.61091C18.9205 5.64236 19.5 7.04131 19.5 8.5C19.5 9.95869 18.9205 11.3576 17.8891 12.3891C16.8576 13.4205 15.4587 14 14 14C12.5413 14 11.1424 13.4205 10.1109 12.3891C9.07946 11.3576 8.5 9.95869 8.5 8.5C8.5 7.04131 9.07946 5.64236 10.1109 4.61091C11.1424 3.57946 12.5413 3 14 3ZM14 5C13.0717 5 12.1815 5.36875 11.5251 6.02513C10.8687 6.6815 10.5 7.57174 10.5 8.5C10.5 9.42826 10.8687 10.3185 11.5251 10.9749C12.1815 11.6313 13.0717 12 14 12C14.9283 12 15.8185 11.6313 16.4749 10.9749C17.1313 10.3185 17.5 9.42826 17.5 8.5C17.5 7.57174 17.1313 6.6815 16.4749 6.02513C15.8185 5.36875 14.9283 5 14 5ZM18 16C16.9391 16 15.9217 16.4214 15.1716 17.1716C14.4214 17.9217 14 18.9391 14 20V28C14 29.0609 14.4214 30.0783 15.1716 30.8284C15.9217 31.5786 16.9391 32 18 32H28C29.0609 32 30.0783 31.5786 30.8284 30.8284C31.5786 30.0783 32 29.0609 32 28V20C32 18.9391 31.5786 17.9217 30.8284 17.1716C30.0783 16.4214 29.0609 16 28 16H18ZM19 26H27C27.2652 26 27.5196 26.1054 27.7071 26.2929C27.8946 26.4804 28 26.7348 28 27C28 27.2652 27.8946 27.5196 27.7071 27.7071C27.5196 27.8946 27.2652 28 27 28H19C18.7348 28 18.4804 27.8946 18.2929 27.7071C18.1054 27.5196 18 27.2652 18 27C18 26.7348 18.1054 26.4804 18.2929 26.2929C18.4804 26.1054 18.7348 26 19 26ZM18 21C18 20.7348 18.1054 20.4804 18.2929 20.2929C18.4804 20.1054 18.7348 20 19 20H27C27.2652 20 27.5196 20.1054 27.7071 20.2929C27.8946 20.4804 28 20.7348 28 21C28 21.2652 27.8946 21.5196 27.7071 21.7071C27.5196 21.8946 27.2652 22 27 22H19C18.7348 22 18.4804 21.8946 18.2929 21.7071C18.1054 21.5196 18 21.2652 18 21Z" fill="#00738E"/>
</svg>
