<svg width="33" height="32" viewBox="0 0 33 32" fill="none" xmlns="http://www.w3.org/2000/svg">
<path fill-rule="evenodd" clip-rule="evenodd" d="M12.6429 4C12.474 4 12.3068 4.03326 12.1508 4.09787C11.9948 4.16248 11.8531 4.25719 11.7337 4.37658C11.6143 4.49597 11.5196 4.6377 11.455 4.79369C11.3904 4.94968 11.3571 5.11687 11.3571 5.28571C11.3571 5.45456 11.3904 5.62175 11.455 5.77774C11.5196 5.93373 11.6143 6.07546 11.7337 6.19485C11.8531 6.31424 11.9948 6.40895 12.1508 6.47356C12.3068 6.53817 12.474 6.57143 12.6429 6.57143H20.3571C20.526 6.57143 20.6932 6.53817 20.8492 6.47356C21.0052 6.40895 21.1469 6.31424 21.2663 6.19485C21.3857 6.07546 21.4804 5.93373 21.545 5.77774C21.6096 5.62175 21.6429 5.45456 21.6429 5.28571C21.6429 5.11687 21.6096 4.94968 21.545 4.79369C21.4804 4.6377 21.3857 4.49597 21.2663 4.37658C21.1469 4.25719 21.0052 4.16248 20.8492 4.09787C20.6932 4.03326 20.526 4 20.3571 4H12.6429ZM9.21429 8.28571C8.87329 8.28571 8.54627 8.42117 8.30515 8.66229C8.06403 8.90341 7.92857 9.23044 7.92857 9.57143C7.92857 9.91242 8.06403 10.2394 8.30515 10.4806C8.54627 10.7217 8.87329 10.8571 9.21429 10.8571H23.7857C24.1267 10.8571 24.4537 10.7217 24.6949 10.4806C24.936 10.2394 25.0714 9.91242 25.0714 9.57143C25.0714 9.23044 24.936 8.90341 24.6949 8.66229C24.4537 8.42117 24.1267 8.28571 23.7857 8.28571H9.21429ZM7.07143 15.1429V25.4286H25.9286V15.1429H7.07143ZM6.21429 12.5714C5.75963 12.5714 5.32359 12.752 5.0021 13.0735C4.68061 13.395 4.5 13.8311 4.5 14.2857V26.2857C4.5 26.7404 4.68061 27.1764 5.0021 27.4979C5.32359 27.8194 5.75963 28 6.21429 28H26.7857C27.2404 28 27.6764 27.8194 27.9979 27.4979C28.3194 27.1764 28.5 26.7404 28.5 26.2857V14.2857C28.5 13.8311 28.3194 13.395 27.9979 13.0735C27.6764 12.752 27.2404 12.5714 26.7857 12.5714H6.21429ZM20.4086 19.1371C20.5349 19.0194 20.6362 18.8775 20.7065 18.7198C20.7768 18.5621 20.8145 18.3918 20.8176 18.2192C20.8206 18.0465 20.7889 17.8751 20.7242 17.715C20.6595 17.5549 20.5633 17.4095 20.4412 17.2874C20.3191 17.1653 20.1737 17.069 20.0136 17.0044C19.8535 16.9397 19.682 16.9079 19.5094 16.911C19.3368 16.914 19.1665 16.9518 19.0088 17.0221C18.8511 17.0924 18.7091 17.1937 18.5914 17.32L15.2143 20.6971L14.4086 19.8914C14.2909 19.7651 14.1489 19.6638 13.9912 19.5935C13.8335 19.5232 13.6632 19.4855 13.4906 19.4824C13.318 19.4794 13.1465 19.5111 12.9864 19.5758C12.8263 19.6405 12.6809 19.7367 12.5588 19.8588C12.4367 19.9809 12.3405 20.1263 12.2758 20.2864C12.2111 20.4465 12.1794 20.618 12.1824 20.7906C12.1855 20.9632 12.2232 21.1335 12.2935 21.2912C12.3638 21.4489 12.4651 21.5909 12.5914 21.7086L14.3057 23.4229C14.5468 23.6636 14.8736 23.7989 15.2143 23.7989C15.555 23.7989 15.8818 23.6636 16.1229 23.4229L20.4086 19.1371Z" fill="#00738E"/>
</svg>
