<svg width="32" height="32" viewBox="0 0 32 32" fill="none" xmlns="http://www.w3.org/2000/svg">
<path d="M12.7376 7.24486L13.5301 5.19892C13.6638 4.85252 13.899 4.55457 14.2048 4.34408C14.5107 4.13359 14.873 4.02038 15.2443 4.01929H16.7557C17.127 4.02038 17.4893 4.13359 17.7952 4.34408C18.101 4.55457 18.3362 4.85252 18.4699 5.19892L19.2624 7.24486L21.9535 8.79313L24.1284 8.46136C24.4906 8.4122 24.8592 8.47182 25.1874 8.63263C25.5156 8.79345 25.7885 9.0482 25.9716 9.36452L26.7089 10.6547C26.8978 10.9761 26.9849 11.3472 26.9585 11.719C26.9322 12.0909 26.7938 12.446 26.5614 12.7375L25.2159 14.4517V17.5482L26.5983 19.2624C26.8306 19.5539 26.9691 19.9091 26.9954 20.2809C27.0217 20.6528 26.9347 21.0238 26.7458 21.3452L26.0085 22.6354C25.8254 22.9518 25.5524 23.2065 25.2242 23.3673C24.896 23.5281 24.5275 23.5878 24.1653 23.5386L21.9903 23.2068L19.2993 24.7551L18.5067 26.801C18.3731 27.1474 18.1379 27.4454 17.832 27.6559C17.5262 27.8664 17.1639 27.9796 16.7926 27.9807H15.2443C14.873 27.9796 14.5107 27.8664 14.2048 27.6559C13.899 27.4454 13.6638 27.1474 13.5301 26.801L12.7376 24.7551L10.0465 23.2068L7.87156 23.5386C7.50941 23.5878 7.14082 23.5281 6.81262 23.3673C6.48443 23.2065 6.21145 22.9518 6.02838 22.6354L5.29111 21.3452C5.10218 21.0238 5.01514 20.6528 5.04147 20.2809C5.06779 19.9091 5.20625 19.5539 5.43856 19.2624L6.78409 17.5482V14.4517L5.4017 12.7375C5.16938 12.446 5.03093 12.0909 5.0046 11.719C4.97828 11.3472 5.06532 10.9761 5.25424 10.6547L5.99152 9.36452C6.17459 9.0482 6.44757 8.79345 6.77576 8.63263C7.10395 8.47182 7.47255 8.4122 7.8347 8.46136L10.0097 8.79313L12.7376 7.24486ZM12.3136 16C12.3136 16.7291 12.5298 17.4418 12.9349 18.048C13.34 18.6542 13.9157 19.1267 14.5893 19.4057C15.2629 19.6847 16.0041 19.7577 16.7192 19.6155C17.4343 19.4733 18.0911 19.1222 18.6067 18.6066C19.1222 18.0911 19.4733 17.4342 19.6155 16.7191C19.7578 16.0041 19.6848 15.2629 19.4058 14.5893C19.1267 13.9157 18.6543 13.3399 18.048 12.9349C17.4418 12.5298 16.7291 12.3136 16 12.3136C15.0223 12.3136 14.0847 12.702 13.3933 13.3933C12.702 14.0846 12.3136 15.0223 12.3136 16Z" stroke="#00738E" stroke-width="3" stroke-linecap="round" stroke-linejoin="round"/>
</svg>
